<svg xmlns="http://www.w3.org/2000/svg" display="block" viewBox="0 0 141 78"><path fill="#fdfdfd" d="M0 0h141v78H0V0Z"/><path fill="silver" d="M100.9684061 16.8097289C112.160602 16.89572548 117.868735 16.42004773 123 20c5.429582 5.552982 7.072563 10.120787 7.375 17.75-.131751 6.628705-1.374265 12.849689-5.871094 17.945312-3.910627 3.413267-7.11905 4.4407-12.191406 4.367188l-2.4492187-.027344L108 60l1.627524-4.68547c5.7765438-5.910882 8.432157-8.472901 8.684976-16.68953-.150054-6.82748-1.3357826-12.302357-5.8125-17.5625-2.5140956-2.1452905-8.5456895-2.3355616-11.5315939-4.2527711Z" display="block"/><path fill="#bebebe" d="M95 17c5.5461361.04827095 12.34248.55251799 14.604561 4.9556624.575164 3.1015871 1.938964 16.6286726 1.369952 19.7312896-10.82877 30.008187-9.7750422-8.082718-10.8011156-6.769344C118.08186 33.809599 105.703365 50.494764 105 53c-1.1455771.821888-2.3158267 1.609767-3.5 2.375-3.0400739 2.337562-3.4724929 3.475362-4.1835937 7.34375C97.0164345 66.480003 96.9664089 70.228203 97 74H85l-.005676-16.308594L88.4375 57.5625C91.518467 57.465042 91.518467 57.465042 94 56c-.3511381-3.511381-.7580957-6.911431-1.5234375-10.355469C90.7116225 35.850561 92.1055383 26.4070007 95 17Z" display="block"/><path fill="#c4c4c4" d="M12.8418541 16.70229242c5.982464.001819 11.3159237.008396 11.4211769.007487 0 0 .0047 1.49249843.00259 5.02459553L27.375 19.0000003c4.236922-2.89251433 8.691754-2.35098197 13.625-2.00000005l1 2.00000005 1-2.00000005h9l-2.3125 1.68749995C45.793689 22.0379884 44.177362 24.3446187 43.625 29.5c.120511 3.458162.120511 3.458162 1.8125 5.875C47.618065 39.03835 47.965003 42.765411 48 47c-1 1-1 1-3.5625 1.0625L42 48c2.25478 5.703267 5.046036 7.728515 10 11v1h-9v-3l-1.8125-.75C38.664131 54.808075 37.499699 53.474504 36 51v-3l7-1v-8l-1.875-.8125C39 37 39 37 37 34c-.539162-2.660202-.733701-5.292626-1-7.9999997-.435174-.6806623-3.536222-.8619702-6.867418.7292038-3.5003689 1.6719809-4.6097654 3.6009669-4.6784807 7.5005329l-.063477 3.602294-.097656 3.916016c-.014742 1.354813-.02906 2.709631-.042969 4.064453-.028178 1.374387-.058108 2.748738-.089844 4.123047-.070629 3.354877-.1012669 6.79745-.1380592 10.152841-3.7936272-.02216-7.62006514-.0076-11.1584394-.0049.00183-14.543456-.015956-42.95212179-.021803-43.38119558z"/><path fill="#050505" d="M94.9915632 17c7.1968011-.46850785 13.2367418-.59379775 19.0084368 4 5.314577 6.858567 5.606405 14.659074 5 23-.683485 4.019393-1.414018 7.74488-4.722656 10.363281L112.375 55.625c-3.032213 2.221495-3.35514 3.266173-4.050781 7.078125C108.018538 66.470222 107.966353 70.22195 108 74l-12.24609375-.0039c-.15532356-13.40809.16889519-13.435434 2.73437505-17.15235C100.375 55.375 100.375 55.375 102.3085937 54.140625 104.6698412 52.548283 105.2872379 50.692657 106 48l-5-1c-.3227512-5.594354 8.426192-9.525891 6.1585-20.7630609C105.2195709 16.6288974 97.3895192 17.50059734 94.9915632 17ZM54 17h8c4.540363 10.957142 7.863071 19.551257 11.841605 30.514513 2.012413-5.631429 10.273588-30.50559947 9.993226-30.50257507l8.057535-.01216534C86.748186 32.414919 79.25477 54.341284 77.277863 60.015748L70 60c-4.248983-11.320771-11.0680323-29.212915-16-43Z"/><path fill="#fff" d="m95 17 .125 2.625C95 23 95 23 94.0078125 25.78125 91.4375834 33.990044 93.046282 42.775961 95 51c.6670045 2.807709.8055876 4.401219.375 5.59375C94.9656063 57.727583 93 58 90.8359375 58.195312c-1.6455452-.05341-3.2915206-.08865-4.9375-.125-2.3303422-.02369 2.5619826.04842-7.043639-.09777C81.0440062 49.493962 83.8308857 41.234217 86.625 32.9375l1.234375-3.701172C90.8591518 20.2816964 90.8591518 20.2816964 92 18c.7809995-.2071866.172435-1.13584535 3-1Z"/><path fill="#fff" d="M101 21c2.1862597 1.0288083 3.694297 4.3060015 3.7530195 6.0626149C104.9153136 31.917452 104.9932939 34.168584 102 38c-.56372049 2.985631-.8122144 5.969529-1 9l5 1c-.3125 2.375-.5002642 3.019325-1.342488 4.238916-.6691365.968949-2.77167466 2.190271-2.77167466 2.190271C96.4709739 46.667883 94.5814672 41.381426 96 32c1.5508718-10.25664647 3.5870627-10.66981999 5-11Z"/></svg>