<svg xmlns="http://www.w3.org/2000/svg" display="block" viewBox="0 0 192 128"><path fill="#fefefe" d="M0 0h192v128H0Z"/><path fill="#060606" d="M114 29h6v15h9l6 4 5 8v18l-5 9-8 5h-8l-1-2h4l-2-8-1-27-5-5-10-2-1-5 1-2h9Z"/><path fill="#c4c4c4" d="m68 43 7 1v1h-7v10h2v2h3v7l-4 4-1 18h16l-2 2H68l-8-4-4-5-2-6V56l5-8 4-3ZM100 28h9v1h-9Zm-26 1h13v9h11l-1-7h-2v2h-2v-4h7v14l-1 1H83v-6h-9Z"/><path fill="#f9f9f9" d="M66 55h4v2h3v7l-5 5-1 5h-2V57Z"/><path fill="#1e1e1e" d="M104 67h6l-1 8-4 4-2-1V68Z"/><path fill="#090909" d="m68 56 5 1v7l-5 4Z"/><path fill="#1b1b1b" d="M103 53h5l2 3v3l-7 2Z"/><path fill="#393939" d="M109 82h2l1 3 3 2-2 1h-10v-2Z"/><path fill="#a4a4a4" d="M100 28h9v1h-9Zm-7 1h7v14h-1V30l-4 1v2h-2Z"/><path fill="#eee" d="m66 55 4 1h-2v12h-1l-1-8-1-3Z"/></svg>