<svg xmlns="http://www.w3.org/2000/svg" display="block" viewBox="0 0 192 128"><path fill="#fefefe" d="M0 0h192v128H0Z"/><path fill="#0f0f0f" d="M61 27h11l1 1 1 14h32V28h11v17l-39-1v2l-5 5-1 9 3 6-3 4-1 7 3 6 1 2H60l-1-14V56l1-28Z"/><path fill="#c1c1c1" d="M130 52h1v33h-12l-6 14-4 3-3 1H94l-16-1V86l39-1 1-4 5-2 2-5 1-12Z"/><path fill="#131313" d="M120 27h11v17l-9 1-2 3-1-1V28Z"/><path fill="#050505" d="M106 28h11v17l-13-1-4-2h6Z"/><path fill="#0d0d0d" d="M130 52h1v33h-11l2-5 3-6 1-12Z"/><path fill="#f6f6f6" d="M97 87h9l-2 6-3 2h-4Z"/><path fill="#141414" d="M130 52h1v33h-11l1-2 9 1-1-24-2 1Z"/><path fill="#c9c9c9" d="M131 28h1l1 18-2 3v-4h-9v-1h9Z"/></svg>