<svg xmlns="http://www.w3.org/2000/svg" display="block" viewBox="0 0 192 128"><path fill="#fefefe" d="M0 0h192v128H0Z"/><path fill="#0d0d0d" d="M118 29h11l1 16 3 3 5-2 3-2h12l6 5 2 4v33l-1 1h-11V71h-13v16h-9l-1-1V45l-8-1Z"/><path fill="#c3c3c3" d="M80 29h2v26l-1 3v15l1 2v11h15l23 1-1 9-7 6-5 2H95l1-2 8-3 2-5-1 1H86v-5h-5l2 7 5 4 2 2H75l-5-9v-4h5l-2-10-3-5-1-4V57l3-6 3-6h5Z"/><path fill="#ccc" d="M81 75h1v11h15l23 1-1 9-7 6-5 2H95l1-2 8-3 2-5-1 1H86v-8h-5Z"/><path fill="#0f0f0f" d="M109 87h11l-1 9-7 6-5 2H95l1-2 8-3 4-8Z"/><path fill="#f8f8f8" d="M81 90h5v5l10-1h9l2-1-1 5-3 3-8 3H84l4-2-6-5Z"/><path fill="#010101" d="m118 29 10 1v15l-10-1Z"/><path fill="#040404" d="M100 29h11v9h-11Z"/><path fill="#dfdfdf" d="m142 52 5 1 2 2v5h-13l1-5Z"/><path fill="#afafaf" d="M93 29h7v9l-5 1-1 5h-3v-6h2Z"/><path fill="#191919" d="M86 90h7l2 5h-9Z"/><path fill="#f7f7f7" d="m86 87 12 1-1 5h-3l-1-2-7-1Z"/></svg>