<svg xmlns="http://www.w3.org/2000/svg" display="block" viewBox="0 0 192 128"><path fill="#fefefe" d="M0 0h192v128H0Z"/><path fill="#aeaeae" d="M69 44h5v42h6v-5l6 4 3 1 27 1-1 7-3 5-4 3-3 1H73V87l-5-1V45Z"/><path fill="#060606" d="M86 87h30l-1 7-3 5-4 3-3 1H85l-1-1V91h2Z"/><path fill="#c1c1c1" d="M118 29h11v58h-19v-1l9-2 5-6 2-8V58l-3-7v-5l-10-2v-1h5Z"/><path d="M69 45h4v41h-4Z"/><path fill="#bcbcbc" d="M82 29h4l1 9 5 1V29h4v10h-3v4l-6 2h-5l-1 4-2 1v-6h3Z"/><path fill="#c6c6c6" d="M98 29h9v9l-1 1h-8Z"/><path fill="#fbfbfb" d="M77 90h6l1 2v9l-4-2-3-4Z"/><path fill="#060606" d="M93 29h3v9h-3Z"/><path fill="#d5d5d5" d="M79 44h8v1h-5l-1 4-2 1Z"/></svg>