<svg xmlns="http://www.w3.org/2000/svg" display="block" viewBox="0 0 192 128"><path fill="#fefefe" d="M0 0h192v128H0Z"/><path fill="#0e0e0e" d="M109 29h9l1 18 1-18h12v57l-1 1h-10l-1-4-2 4-6 1H93l2-2h11V53l1-8h-8v-7l2-2h6l2 1Z"/><path fill="#c2c2c2" d="M57 44h5v8h2l-1 4h2v12l-3 2V53l-3 1-2 3v15l3 5 5 5 4 5H57l-6-4-4-5-2-5V58l3-7 7-6Z"/><path fill="#c7c7c7" d="M96 28h11v1h-9l1 15H87l-1-11-5 3h-2v8h-3v-8l10-6 4 2Z"/><path fill="#f9f9f9" d="M59 53h3l1 19-1 5h-3l-3-5V57Z"/><path fill="#bfbfbf" d="M65 29h10v9H65Z"/><path fill="#2d2d2d" d="M62 52h2l-1 4h2v12l-3 2Z"/><path fill="#323232" d="M86 30v3l-5 3h-2v8h-3v-8Z"/></svg>