<svg xmlns="http://www.w3.org/2000/svg" display="block" viewBox="0 0 192 128"><path fill="#fefefe" d="M0 0h192v128H0Z"/><path fill="#151515" d="M114 29h11l1 18 3 4 1 6v29l-1 1h-9l1-5 3-3 1-4-5-1v-5l6-1-1-11-3-6-2-2v-4h-8l-5-1V32l5-2v13h2Z"/><path fill="#c3c3c3" d="M110 87h10v6l-4 6-6 4H91l-7-4-2-4v-5h9l3 1 2 3h10l2-2Z"/><path fill="#050505" d="M72 48h1v35l-5-4-2-5V57l5-8Z"/><path fill="#060606" d="M109 31h2v12h-4V32Z"/><path fill="#cfcfcf" d="M97 38h4v5l-4 1-1-5Z"/><path fill="#c4c4c4" d="M83 29h4v5l-4 2Z"/></svg>