<svg xmlns="http://www.w3.org/2000/svg" display="block" viewBox="0 0 192 128"><path fill="#fefefe" d="M0 0h192v128H0Z"/><path fill="#020202" d="M113 27h11v15l13 1 3 5 3 5 1 4v13l-3 8-4 5-5 3h-4V45h-15l-24-1v-2h23V28Z"/><path fill="#0e0e0e" d="M59 27h11l1 1v14h7v2H64l1 5-4 5-2 4v15l5 8 5 5-10-1-2-5-3-4-2-7V57l4-8 2-2Z"/><path fill="silver" d="M84 85h19v2h12v14h-12V88H91l-3-1v15H78V87h-6v-1Z"/><path fill="#2b2b2b" d="M113 27h11v15h7l-2 1v43h-1V45h-15l-24-1v-2h23V28Z"/><path fill="#030303" d="M111 87h4v14h-12V88Z"/><path fill="#c2c2c2" d="M78 29h11v15l-1-2H78Z"/><path fill="#efefef" d="m118 84 2 1 10 1v1h-13l-1 14h-1V87l-2-1Zm-16 4h1v13h-1Zm1 13h12v1h-12Z"/><path fill="#1f1f1f" d="m69 64 2 3 3 8-1 3-3-4-1-3Z"/><path fill="#d6d6d6" d="m118 84 2 1 10 1v1h-13l-2 1-2-2Z"/></svg>