<svg xmlns="http://www.w3.org/2000/svg" display="block" viewBox="0 0 192 128"><path fill="#fefefe" d="M0 0h192v128H0Z"/><path fill="#c1c1c1" d="M135 44h7l6 3 3 5v35h-8l-1 6-4 6-6 4h-8l5-4 3-6 2-7h8l-1-33-3-6Z"/><path fill="#171717" d="M56 44h12l1 5-4 6-2 5 1 13 3 7v7H56l-1-1V45Z"/><path fill="#cecece" d="M106 86h8l-2 2-6 1 10 2v2l5-1-1-6h10l2 1-2 7-3 1h-16l-3-1-1-2-3-1 3 7 4 3 7 2v1h-10l-9-3-4-5-1-6 4-1v-2h7Z"/><path fill="#c2c2c2" d="M142 56h1v30h8v1h-8l-1 6-4 6-6 4h-8l5-4 3-6 2-7h8Z"/><path fill="#c5c5c5" d="M116 29h9v6l9-5v14h-9l-1-13-8 4Z"/><path fill="#151515" d="M95 90h7l2 1 3 7 4 3 7 2v1h-10l-9-3-4-5Z"/><path fill="#111" d="M104 29h9v15h-8l-1-1Z"/><path fill="#1f1f1f" d="M73 29h12v9l-1 1H74l-1-1Z"/><path fill="#191919" d="M120 86h10l2 1-2 7-3 1h-8l2-3Z"/><path fill="#dbdbdb" d="M142 56h1v30h8v1h-8l-1 3v-3h-8v-1h8Zm-9 31Z"/><path fill="#bdbdbd" d="M116 29h9v6l-1-4-8 4Z"/><path fill="#c5c5c5" d="M108 91h8v2l3 1v1h-8l-3-1Z"/><path fill="#c7c7c7" d="m67 72 2 2 2 10-5-5Z"/><path fill="#e1e1e1" d="m142 85 9 1v1h-8l-1 3v-3h-8v-1Zm-9 2Z"/></svg>