<svg xmlns="http://www.w3.org/2000/svg" display="block" viewBox="0 0 192 128"><path fill="#fefefe" d="M0 0h192v128H0Z"/><path fill="#c2c2c2" d="m125 44 6 2 2 1 2-3h10v45l-2 6-5 6-4 2h-17l-6-2 2-5 2-5-9-1 3 8 1 3-8 3H90l-8-3-4-4-1-7h12l3 4h9l2-2 1-5h12v4h2l2 3h10l3-3 1-5h-5l-1-34-3-5Z"/><path fill="#0c0c0c" d="M104 87h12v3h-10l3 8 1 3-8 3H90l-8-3-4-4-1-7h12l3 4h9l2-2Z"/><path fill="#212121" d="M69 44h10l2 1 3-1v2l-7 5-3 8v15l5 8 1 5H68V45Z"/><path fill="#070707" d="M87 29h20v3l-5 3h-2v-4l-9 5-1 2h-3Z"/><path fill="#bdbdbd" d="M86 29h1v9h-1Zm5 6 2 1-1 1 8 1 1 5-2 1-9-1-1-3-2-2h3Z"/><path fill="#f9f9f9" d="m106 90 9 1-1 5-4 5-4-7Z"/><path fill="#ccc" d="M107 29h7v15h-2V30l-5 2Z"/><path fill="#1a1a1a" d="M118 39h7v5h-7Z"/><path fill="#1e1e1e" d="M101 29h6v3l-5 3h-2l-1-5Z"/><path fill="#373737" d="M107 87h9v3h-10Z"/></svg>