<svg xmlns="http://www.w3.org/2000/svg" display="block" viewBox="0 0 192 128"><path fill="#fefefe" d="M0 0h192v128H0Z"/><path fill="#c1c1c1" d="M16 29h10v15h15V29h31v9l-1 1h-8l-1-1v-7l-8 5h-2v8l-10 1v42H16l-4-8-2-3-1-5V58l3-6 3-3Z"/><path fill="#080808" d="M113 29h12v58l-24 1 2-2h3v-7l1-3-8-2 1-5 8-1v-7l-2-7v-9l-12-1V34l-5 2-1 8h-5v-8l10-6 1 2 5-2v13h7l7 4Z"/><path fill="#131313" d="M42 29h30v9l-1 1h-8l-1-1v-7l-8 5h-2v8H42Z"/><path fill="#c2c2c2" d="m93 30 1 2 5-2v13h7l-1 2-11-1V34l-5 2-1 8h-5v-8Z"/><path fill="#c1c1c1" d="M29 29h11v9H29Z"/><path d="M70 29h1v9h-8v-8Z"/><path fill="#1b1b1b" d="m93 30 1 3-5 3-1 8h-5v-8Z"/><path fill="#454545" d="m49 68 3 1v5h-4v-5Z"/></svg>