<svg xmlns="http://www.w3.org/2000/svg" display="block" viewBox="0 0 192 128"><path fill="#fefefe" d="M0 0h192v128H0Z"/><path fill="#c2c2c2" d="M105 43h13l10 1 2 1 2 7 4 8v11l-4 8-8 8h-10l-1-4 4-5 2-6-7-1V58l6-1-3-7-5-4-5-2Z"/><path fill="#c1c1c1" d="M69 29h4l1 9h10v-4l-5 2v-7h6v3h2v12l-17 1-7 3-1-4h7Z"/><path fill="#cecece" d="m55 58 2 1 1 14 4 8 5 4 4 2-4 1-8-4-3-4-1-4Z"/><path fill="#3b3b3b" d="m51 44 5 1v12l-2-1-4-11Z"/><path fill="#737373" d="M97 30h2v13l3 1-4 1-1-1Z"/><path fill="#262626" d="M79 29h5v5l-5 2Z"/><path fill="#d4d4d4" d="M62 44h8l-2 2-5 2Z"/></svg>