<svg xmlns="http://www.w3.org/2000/svg" display="block" viewBox="0 0 192 128"><path fill="#fefefe" d="M0 0h192v128H0Z"/><path fill="#fefefe" d="M83 29h9l2 6h2l1-4 5-1v14h9l4 2V30h5l1 26 1 2v9h-2l1 9-1 9-11 1H83l-7-1v-2l-4-2-4-5-2-5V56l5-8 5-4h7Z"/><path fill="#c5c5c5" d="M120 29h5v58h-14v6l-4 6-6 4H82l-7-4-2-4v-5l12 1 2 3h10l3-4v-2l-13-1v-1l33-1V67h2l-1-9-1-2Z"/><path fill="#c2c2c2" d="M81 27h11v3l-9-1v15l-9 2-5 6-2 4v15l4 8 5 4v2h7v2H65l-6-5-1-2V70l5-6 1-7-5-1 1-5 5-7 15-1V29Zm12 3 1 2h2v3h-2Z"/><path fill="#c6c6c6" d="M81 27h11v3l-9-1v15l-9 2-5 6-2 4-1 13h-1l-1-5v-7l-5-1 1-5 5-7 15-1V29Zm12 3 1 2h2v3h-2ZM63 64Z"/><path fill="silver" d="M120 29h4v57h-12v-1h8V67h2l-1-9-1-2Z"/><path fill="#f7f7f7" d="m83 86 17 1 1 3-4 5H87l-2-4h-7l-5-1v-2h-5v-1Zm-11 4Z"/><path fill="#252525" d="M108 27h12v2h-6v16l-12-1v-2h6Z"/><path fill="#525252" d="M81 27h11v3l-9-1v15h-3V29Zm12 3 1 2h2v3h-2Z"/><path fill="#bdbdbd" d="m101 28 5 1v9h-3l-1-8Z"/></svg>