<svg xmlns="http://www.w3.org/2000/svg" display="block" viewBox="0 0 192 128"><path fill="#fefefe" d="M0 0h192v128H0Z"/><path fill="#f8f8f8" d="M103 28h6l1 1 1 7 10-6h2v14h13v3l3 1 2 5 1 30 1 4h-7l-1 7-4 6-6 3h-19l-7-4-3-7 1-4H80v15H60l-1-25-2-5V58l2-5 1-9 18-1V29h11v14h2V29h7v9h4v-9Z"/><path fill="#060606" d="M121 30h2v14h13v3l3 1 2 5 1 30 1 4h-7l-1 7-4 6-6 3h-19l-7-4-3-7 1-3 13 2 2 3h9l3-3v-3l-22-1 2-6 3-6 1-5v-9l-1-7h2l4-9h-2l1-9Z"/><path fill="#c2c2c2" d="M60 44h15l6 15 1 13 2 5v10h-4v16H60l-1-25-2-5V58l2-5Z"/><path fill="#c1c1c1" d="M78 29h11v15H78Z"/><path fill="#d4d4d4" d="m96 86 28 1 1 4-4 4h-9l-2-4-10-1Z"/><path fill="silver" d="M92 29h6v10h4v4l-11 1Zm10 14 2 1Z"/><path fill="#030303" d="M103 29h6v9h-6Z"/></svg>