<svg xmlns="http://www.w3.org/2000/svg" display="block" viewBox="0 0 192 128"><path fill="#fefefe" d="M0 0h192v128H0Z"/><path fill="#c1c1c1" d="M125 29h11l1 26 1 3v14l-1 3-1 12-27 1v14l-1 1H98V86l1-1h7V44l-7 1v-2h-6v-8l6 1 1 1v6l25 1Z"/><path fill="#040404" d="M87 26h9l5 2v3h-2v-2H89v16l-2 1-5 21-3 4-6-20-1-5-10-1 5 16 5 15 2 6v4H60l-8-5-4-7-1-3V58l2-7 4-5 7-4h4v-8l9-5h2v14h3V33l4-6Z"/><path fill="#0d0d0d" d="M87 26h9l5 2v3h-2v-2H89v16l-2 1-5 21-3 4-6-20-1-5-10-1v-2l-2-1h4v-8l9-5h2v14h3V33l4-6Z"/><path fill="#c4c4c4" d="m93 35 6 1v7h-6Z"/><path fill="#505050" d="M88 75h1v11h-4l2-10Z"/><path fill="#353535" d="m90 26 10 1 1 4h-2v-2l-9-1Z"/></svg>