<svg xmlns="http://www.w3.org/2000/svg" display="block" viewBox="0 0 192 128"><path fill="#fefefe" d="M0 0h192v128H0Z"/><path fill="#bebebe" d="M69 29h14v53l1 5-4-1-5 1H62l-7-3-4-5-3-8V59l4-8 6-6 4-1h7Z"/><path fill="#0c0c0c" d="M108 43h10l4 2 3 6 1 31 1 5h-11v-2l-5 2h-7l5-4 5-5 3-9V59l-4-8-1-4 1-2-5-1Z"/><path fill="#060606" d="m101 54 4 2 2 3v12l-4 6-5 2V59Z"/><path fill="#cdcdcd" d="M93 29h5v10h-4v4h5l-2 2-4 1Z"/><path fill="#c7c7c7" d="M107 69h3l-1 7-3 1-1-4Z"/><path fill="#fbfbfb" d="M68 54h1v8h-4v-5Z"/><path fill="#fcfcfc" d="M65 69h4v8l-4-4Z"/></svg>