<svg xmlns="http://www.w3.org/2000/svg" display="block" viewBox="0 0 192 128"><path fill="#fefefe" d="M0 0h192v128H0Z"/><path fill="#c2c2c2" d="M91 28h13l3 1h20v9l-1 1h-8v4l10 1 5 3 2-3h10v45l-2 6-5 6-4 2h-19l-6-4-3-4v-5l12 1 2 3h10l3-3 1-5-23 1V44H99v-7h6l-1-3-4 1v-4l-9 5-1 8-9 3-5 6-2 6v15l5 8 6 4v1H64l-8-6-4-9V59l5-10 7-5 5-1v-7l10-6h2v14h2v-8l4-7Z"/><path fill="#050505" d="M91 28h13l1 5-5 2v-4l-9 5-1 8-9 3-5 6-2 6v15l5 8 6 4v1H64l-8-6-4-9V59l5-10 7-5 5-1v-7l10-6h2v14h2v-8l4-7Z"/><path fill="#1e1e1e" d="M91 28h13l1 5-5 2v-4l-9 5-1 8-9 1 2-1v-8l4-7Zm-12 2h2v14h-1Z"/><path fill="#f6f6f6" d="M105 86h29l-1 7-3 2h-10l-2-3-10-2Z"/><path fill="#e3e3e3" d="m104 33 1 4h-6l3-3Zm-6 4h1v7h-1Zm1 7h12v1H99Z"/><path fill="#282828" d="m101 28 4 1-1 5-4 1-1-5h2Z"/></svg>