<svg xmlns="http://www.w3.org/2000/svg" display="block" viewBox="0 0 192 128"><path fill="#fefefe" d="M0 0h192v128H0Z"/><path fill="#080808" d="M127 29h7v15l6 1 5 4 3 6 1 4v14l-3 7-5 5-5 3h-8l-1-2h6l-1-32-3-7-5-2-8-1 1-6 1-1h8Z"/><path fill="#bebebe" d="M68 29h1v16h-1ZM56 45h12v41H56Z"/><path fill="#bababa" d="M88 86h35l-1 2h-16l-1 8-5 5-5 2H79l-7-3-4-5v-5h10l3 1 1 3h10l3-2 1-4h-8Z"/><path fill="#c4c4c4" d="M91 29h11v15l-14 1v-2h3Z"/><path fill="silver" d="M79 29h10v10h-9v4h7v2l-5 1-1 3h-2Z"/><path fill="#dedede" d="M79 29h1v9h8v-9h1v10h-9v4h7v2l-5 1-1 3h-2Z"/><path fill="#b9b9b9" d="m108 29 3 1-1 1-1 12-4 2 2-12Z"/><path fill="#c2c2c2" d="m79 82 7 4v1h-7Z"/></svg>