<svg xmlns="http://www.w3.org/2000/svg" display="block" viewBox="0 0 192 128"><path fill="#fefefe" d="M0 0h192v128H0Z"/><path fill="#090909" d="M133 29h12v58l-13 1h-28l1-2 7-3 4-7-10-1h-2l1-5 1-2h11l-1-12-2-4 1-7-7-1v-1h8v-7l10-6h2v13h5Z"/><path fill="#c2c2c2" d="M73 52h6l3 3v32H69l-1-1V59l3-5Z"/><path fill="#c4c4c4" d="M96 28h11l3 1-1 8-9 1-2 7-5 4-4-2-3-2v-2h2v-4H78V29h11l1 3Z"/><path fill="#c1c1c1" d="M65 29h11v15l-6 4-3 1-1-3-5 5h-2v10l5 5 1 1v7l-2 1h-6V44h8Z"/><path fill="#0b0b0b" d="M57 45h7l-4 6-1 3v7l5 5 1 1v7l-2 1h-6Z"/><path fill="#0d0d0d" d="M57 45h7l-4 6-2 7h-1Z"/><path fill="#d4d4d4" d="m93 83 5 2 2 2-14 1-2-2h9Z"/><path fill="#0a0a0a" d="m57 78 7 6 1 2h-8Z"/></svg>