<svg xmlns="http://www.w3.org/2000/svg" display="block" viewBox="0 0 192 128"><path fill="#fefefe" d="M0 0h192v128H0Z"/><path fill="#c2c2c2" d="M71 29h11v15h5l-1 4-5 8-1 3v13l5 10 2 2v3H72l-3-6-4-8V57l3-6 2-2Z"/><path fill="#030303" d="m132 44 6 2 4 5v35h-10l1-5 4-9V58l-4-8-1-1Z"/><path fill="#121212" d="M100 29h12v9l-4 1-1 5H96v-8l3-2Z"/><path fill="#bfbfbf" d="M120 29h12l1 15-2 4v-4h-6l-1-13-2 1-1 12h-7v-8l5-3Z"/><path fill="#c5c5c5" d="M96 87h12l1 1v14l-1 1H98V88Z"/><path fill="#070707" d="M119 33h1v10l-1 1h-5v-8Z"/><path fill="#d1d1d1" d="M131 29h1l1 15-2 4v-4h-6V30h1v13h5Z"/><path fill="#a9a9a9" d="M120 29h7l-3 2-2 1-1 12-2-1Z"/></svg>