<svg xmlns="http://www.w3.org/2000/svg" display="block" viewBox="0 0 192 128"><path fill="#fefefe" d="M0 0h192v128H0Z"/><path fill="#c1c1c1" d="M78 29h11l1 6 2-1v10l-4 1-5 1-7 6-3 8v11l4 9 5 5 2 2H62v15H42V44h36Z"/><path fill="#050505" d="M129 29h11v15l-11 1h-9v-6h3v4h6Z"/><path fill="#c2c2c2" d="M60 29h11v9H60Z"/><path fill="#323232" d="M135 69h1v17l-3 2h-18l2-2h13l2-9Z"/><path fill="#ddd" d="M141 68h5l1 1v18h-6v-4l4-7-4-2Z"/><path fill="silver" d="M126 29h3v14h-6v-4l-3-1 5-1Z"/><path fill="#b6b6b6" d="M140 29h1v15h2l4 10v6l-2-2-3-7-1-4 1-2-4-1h2Z"/><path fill="#1a1a1a" d="M99 28h9l1 4-5 3h-2v-6Z"/><path fill="#525252" d="m89 83 3 1v2h6l2 2H88Z"/><path fill="#3f3f3f" d="M120 39h3v4h6v2h-9Z"/><path fill="silver" d="M145 78h1v8h-5l1-4Z"/><path fill="#d7d7d7" d="m104 34 2 1-1 1-1 8h-3l1-9Z"/><path fill="#c3c3c3" d="M142 69h4v6h-4Z"/><path fill="#fafafa" d="M123 39h6v4h-6Z"/><path fill="#555" d="M91 34h1v10l-3 1 1-10Z"/></svg>