<svg xmlns="http://www.w3.org/2000/svg" display="block" viewBox="0 0 192 128"><path fill="#fefefe" d="M0 0h192v128H0Z"/><path fill="#c2c2c2" d="M78 86h19l1 1-1 7 4-2 2-5h8l4 1-2 7-4 6-4 2H91l-1-1-4 1H68l-6-4-3-5v-4h10l3 1 2 3 4 1ZM78 29h1v18l-4 6v3l4 1v7l-5 6v10l4 6h-9l-6-4-5-9V57l3-6 5-5 3-2h9Z"/><path fill="#050505" d="M103 87h8l4 1-2 7-4 6-4 2H92l1-4 3-4 5-3Z"/><path fill="#c1c1c1" d="M104 29h20v10l-1 5h-8v-6h8v-8l-10 6-1 7-1 1h-8Z"/><path fill="#c5c5c5" d="M91 29h7v15h-7Z"/><path fill="#c7c7c7" d="m138 48 4 4 2 6v16l-3 6h-1l-1-28Z"/><path fill="#0b0b0b" d="M115 39h8v5h-8Z"/><path fill="#444" d="M139 81h2v5l-1 1h-7l5-5Z"/><path fill="#efefef" d="M91 95h4l-1 4-3 1Z"/></svg>