<svg xmlns="http://www.w3.org/2000/svg" display="block" viewBox="0 0 192 128"><path fill="#fefefe" d="M0 0h192v128H0Z"/><path fill="#bebebe" d="M93 86h16l11 1-1 7-3 5-4 3-4 1H92l-7-3-4-6v-4h10l3 1 2 3h8l4-2 1-4H92Z"/><path fill="#131313" d="M69 44h11l1 4-3 4-1 4 4 2-1 8h-2l-2 5h-1l-2-13-5-13Z"/><path fill="#a8a8a8" d="M102 29h1v10h-1Zm13 1 1 3-5 3-1 8-1 1h-7l-10-2v-4h10v4h3v-7Z"/><path fill="#c7c7c7" d="m136 66 3 3v9l-3 4v5l-5-1 1-4 5-10h-7v-4h6Z"/><path fill="#0c0c0c" d="m115 30 1 3-6 4-1 7h-4v-8Z"/><path fill="#7f7f7f" d="m123 43 10 1 4 7v7h-2l1 6h-2V52l-2-3v-3l-9-2Z"/><path fill="#cbcbcb" d="m75 73 2 3 4 6 4 3 5 2-4 1-8-4-3-5Z"/><path fill="#c9c9c9" d="m138 75 1 3-3 4v5l-5-1 1-4 4-5Z"/><path fill="#bbb" d="m116 30 4 1v12h-3Z"/></svg>