<svg xmlns="http://www.w3.org/2000/svg" display="block" viewBox="0 0 192 128"><path fill="#fefefe" d="M0 0h192v128H0Z"/><path fill="#c1c1c1" d="M77 29h10v14l-8 2-1 41h11V75l2 2v18h-7l1 6 8 1V87h16l-3 9-4 6-6 2H85l-12-1-1-17-5-5-1-2v-8l6-7 1-7-5-1 1-6 3-3 1-3h4Z"/><path fill="#232323" d="M128 30h2v13h6l7 3 6 7 1 4-1 1h-6v9l-6-4v-7l5-1-4-7-7-3-13-1v-5l6-1 2-7Z"/><path fill="#0d0d0d" d="M93 87h16l-3 9-4 6-9 1Z"/><path fill="#c3c3c3" d="M89 29h9v15h-9Z"/><path fill="#030303" d="M78 29h9v14l-9 1Z"/><path fill="#282828" d="m143 71 7 1-1 6-4 5v4l-17 1 3-2h7l2-5 2-3Z"/><path fill="#222" d="M104 29h10v9l-1 1h-8l-1-1Z"/><path fill="#0e0e0e" d="M126 31h3v13h-11v-5l6-1Z"/><path fill="#b6b6b6" d="M116 29h8l1 9-1 1h-6l-2-1Z"/><path fill="#c8c8c8" d="M77 29h1l1 16-1 41h-1V45l-4-1h4Zm1 57h11v1H78Z"/><path fill="#f9f9f9" d="M93 86Zm-1 1h1v15h-8l-1-1v-6l7-1Z"/><path fill="#fbfbfb" d="M123 33h1v5h-6v-2Z"/><path fill="#888" d="m124 70 4 1-1 4-3-1Z"/></svg>