<svg xmlns="http://www.w3.org/2000/svg" display="block" viewBox="0 0 192 128"><path fill="#fefefe" d="M0 0h192v128H0Z"/><path fill="#c2c2c2" d="M58 29h11l1 18 1-3h6V29h12v15H78v42l4 1-7 1-6-2H58Z"/><path fill="silver" d="M144 86Zm-11-6h1v7h10v7l-4 6-6 3h-19l-6-1-7 1 1-4 3-5-4 1h-7l-3-1-1-7h17l1 1h9l2 6h10l3-3 1-3h-14l2-2 6-2Z"/><path fill="#ababab" d="M104 29h23l3 1v13h6l2 2h-3v5l-8-5V32l-7 4h-2v8h-2v-5h-11l-1-1Z"/><path fill="#080808" d="M78 29h11v15H78Z"/><path fill="#aaa" d="M144 48h2l4 7-1 3h-4l1 13 4 1-1 6-3 5h-2l-1-11V58Z"/><path fill="#070707" d="M91 87h16l-2 7-3 1h-7l-3-1Z"/><path fill="#bebebe" d="m89 75 2 2v9h9v1h-9l1 6-1 2h-7v5l-4-4-1-6h10Z"/><path fill="#fcfcfc" d="m124 87 10 1-1 4-3 3h-10l-2-3v-4Z"/><path fill="#010101" d="M105 29h10v9h-10Z"/><path fill="#3d3d3d" d="M128 30h2v13h6l2 2h-3v5l-8-5V31Z"/><path fill="#080808" d="M145 72h5l-1 6-4 4Z"/><path fill="#121212" d="M133 80h1v7h-7l1-3Z"/><path fill="#0d0d0d" d="m145 49 4 4v4h-4Z"/><path fill="#cdcdcd" d="M116 29h1l1 15h-2l-1-6Z"/><path fill="#252525" d="M130 44h5v6l-6-4Z"/></svg>