<svg xmlns="http://www.w3.org/2000/svg" display="block" viewBox="0 0 192 128"><path fill="#fefefe" d="M0 0h192v128H0Z"/><path fill="#c3c3c3" d="M109 43h9l8 1 5 8v3l-4 1v7l5 5 1 2v7l-7 10h-18l3-3 4-4 1-2V68l-1-3h-2l-1-10h4l-2-4 1-6h-5Z"/><path fill="#bcbcbc" d="M80 29h7v9h3v-9h8v5l-4 2v3h-4v5l-5 1-5-1Z"/><path fill="#151515" d="M93 87h7l-2 7-4 6-5 3-2 1H77l-1-2h10V91l2-3Z"/><path fill="#c1c1c1" d="m69 75 3 4v2l4 2v3h4v-3l5 2 8 2v1l-5 1-3 5-2 1h-7l-1-1v-7h-6Z"/><path fill="#c9c9c9" d="M104 30h1v14H93l1-8Z"/><path fill="#040404" d="M91 29h7v5l-4 2v2h-3Z"/><path fill="#090909" d="M69 45h6l-1 5-4 6h-1ZM69 75l3 4 3 4v3h-6Z"/><path fill="#b9b9b9" d="M73 81Zm1 1Zm1 1 1 3 4 1h-4v7h-1v-7h-6v-1h6Zm1 11 2 1Z"/></svg>