<svg xmlns="http://www.w3.org/2000/svg" display="block" viewBox="0 0 192 128"><path fill="#fefefe" d="M0 0h192v128H0Z"/><path fill="#020202" d="M141 30h2v13l7 1 5 2 5 6v4h-4l1 7 5 6-1 10-2 3-1 5h-51l-2 10-6 5-3 1H76v-2l6-5 6-9h12l-1-2V53h8v-9l24-1 1-7Z"/><path fill="#c1c1c1" d="M96 28h11l3 1-1 8-9 1-1 5h9l-1 2h-8l-3-1-1 3-8-2-3-1 4-1v-8l5-6Zm-22 1h10v14l-4 1h-7l-1 5-3 4-2 6v11l4 10 6 5 10 1h13v1H88l-2 5-8 9h-2l-1 2H55l-6-4-3-4v-5l12 1 2 3 8 1-1-5 4-2-15-1-6-5-2 5H38V45h10l1 4 6-5h15v-8l3-2Zm11 58Z"/><path fill="#fcfcfc" d="M84 29h1v14h-1Zm-4 14 9 1 6 2 1-2 11 1v8h-8l1 33-14 1-9-1-7-6-4-10V59l4-9 2-2 1-4Zm5 44Z"/><path fill="#c2c2c2" d="m46 90 12 1 2 3h10l4-4 7 1 1 6-4 4h-2l-1 2H55l-6-4-3-4Z"/><path fill="silver" d="M96 28h11l3 1-1 8-9 1-1 5h9l-1 2h-8l-3-1-1 3-6-2-2-2 2-10 4-4Z"/><path fill="#171717" d="M117 29h12v10h-11l-1-1Z"/><path fill="#fafafa" d="m74 90 7 1 1 6-4 4h-5l-4-4 1-3Z"/><path fill="#c1c1c1" d="M56 29h10v9H56Z"/><path fill="#c5c5c5" d="M93 57h2l1 5v8l-1 2h-2Z"/><path fill="#c3c3c3" d="M80 86h20v1H88l-2 5-3 2 1-7Zm5 1Z"/><path fill="#c4c4c4" d="m78 61 2 2 1 3v9l-2-2-1-3Z"/><path fill="#151515" d="M68 90h5l-1 4-4 1Z"/></svg>