<svg xmlns="http://www.w3.org/2000/svg" display="block" viewBox="0 0 192 128"><path fill="#fefefe" d="M0 0h192v128H0Z"/><path fill="#c1c1c1" d="M153 30h1v14h7l6 4 4 5 2 5v11h-4l-1 6h4l-1 5-7 6-3 1h-15l-5-4-1 20h-11V87h-14l-5 1h-10l2-2h7l1-4 3-5v-5l-4 2-1-5 4-1 3 2 3-10 5-13 2-2 18-1v-8Z"/><path fill="#141414" d="M82 29h16v10h5v4l-11 3-5 2v-3H76l5 13 1 2 1 13 4 8v2l9 3 2 2H84l-11-1-8-7-3-10V60l3-9 5-5 5-3h16v-4h-8l-1-1Z"/><path fill="#030303" d="M83 29h15v10h5v4l-11 3-5 2-1-4 5-1v-4l-8-1Z"/><path fill="#c1c1c1" d="M120 31h2v13h-9l-1 5-5-2-9-3v-1h14v-7ZM129 29h11v9h-11Z"/><path fill="#c1c1c1" d="M103 29h6v10H98v-1h5Z"/><path fill="#c7c7c7" d="M103 58h5l-2 7-3-1Z"/></svg>