<svg xmlns="http://www.w3.org/2000/svg" display="block" viewBox="0 0 192 128"><path fill="#fefefe" d="M0 0h192v128H0Z"/><path fill="#c2c2c2" d="M127 29h11v57h-18l2-4 3-5v-9l-5-5v-6h3v-2h2l-5-8v-2h-6l-2-2 15 1Z"/><path fill="#171717" d="m66 72 2 4 4 6 4 3 7 2v15l-1 1h-9V86l-4-2-3-5Z"/><path fill="#bebebe" d="M93 29h10l1 3 3-1v13H97l-1-5h-3Z"/><path fill="#b7b7b7" d="M73 44h6l-5 4-4 2-3 6 5 1-1 8-5 5-2-13-4-10v-2h11v2h2Z"/><path fill="#c6c6c6" d="M84 87h9v16h-9Z"/><path fill="#c2c2c2" d="M109 29h11v9h-11Z"/><path fill="silver" d="M83 29h8v9h-8Z"/><path fill="#060606" d="M93 29h9v5l-6 2v2h-3Z"/><path fill="#d9d9d9" d="M100 34h2l1 4-1 1h-5l-1 4v-4l-3-1h3v-2Zm-3 9h10v1H97Z"/><path fill="#1e1e1e" d="m66 72 2 4 4 6 2 2-3 2-4-4-1-3Z"/></svg>