<svg xmlns="http://www.w3.org/2000/svg" display="block" viewBox="0 0 192 128"><path fill="#fefefe" d="M0 0h192v128H0Z"/><path fill="#050505" d="M116 29h28l1 14 10 2 5 5 3 4 1 4v10h-4v5l4 2-4 8-7 4h-33l-1-1V45h-13l-1-2h11Z"/><path fill="#bdbdbd" d="M73 29h18v6l-2 1-1 8-4 1H73v9l-1 4v15l1 3v9l-4-2-3-6V44h7Z"/><path fill="#0d0d0d" d="M66 45h7v9l-1 4v15l1 3v9l-4-2-3-6Z"/><path fill="#131313" d="M85 29h6v6l-2 1-1 8h-3Z"/><path fill="#050505" d="M102 29h7v9h-7Z"/><path fill="#c1c1c1" d="M96 29h2v9h3v-6h1v6h7v1h-7v4h-6Z"/></svg>