<svg xmlns="http://www.w3.org/2000/svg" display="block" viewBox="0 0 192 128"><path fill="#fdfdfd" d="M0 0h192v128H0Z"/><path fill="#050505" d="M81 43h7v2h-6l-2 4-3 7h4l-1 10h-2l-2 5v8l3 5 3 2-1 10-5 5-3 2H52l-6-4-3-5v-4h12l3 4h9l3-2 1-5H55l-9-6-4-9V57l3-6 5-5 4-2ZM134 44h12l4 1h12l-3 9-3 10-1 1-1 22h-7l-2 6-3 6-3 3-3 1h-13l1-4 3-4 5-3 2-6-1-7 1-2-1-10-4-3v-9h6l6 16 1-1V58l-1-4-7-2-1 2-4-6v-3Z"/><path fill="#c1c1c1" d="M108 53h2l1 2 1 31 17 1-1 7 2 1-3 1-4 7-1-2-5 2H92l-8-4-3-4 1-9 1 4h17l3 1 1 2 4-1 1-5h-5V57Z"/><path fill="#c5c5c5" d="M105 29h11v9l-1 1h-10Z"/><path fill="#e2e2e2" d="m134 52 7 1 2 5v12l-3 2-5-15v-2l-2-1Z"/><path fill="#f0f0f0" d="M84 86h10l-2 4h-9Z"/><path fill="#c6c6c6" d="m129 72 2 2 2 7-4 3Z"/></svg>