<svg xmlns="http://www.w3.org/2000/svg" display="block" viewBox="0 0 192 128"><path fill="#fefefe" d="M0 0h192v128H0Z"/><path fill="#070707" d="M50 27h12v16l5-1 1-14h11v14h2v-7l12-7 1 1v14h7v6l-7-4H66v3h-2l-2 5-1 3h5v9l-5 5v9l1 6h-7l-2 7-4 7-5 3H31l-1-1v-8l9-1 3-5-1-6-6-16-6-16-2-6h13l8 23v4h2Z"/><path fill="#c1c1c1" d="M106 29h11v15h7l5 1h14l-6 7v4l1 3v15l6 12h-11l-4-2-2 3h-20l-5-4v4H88l-7-1 4-4 4 3h12v-9l-3-1 1-2h-5v-6h5l-1-12-1-4 2-1 1-2 4-1 1-1Z"/><path fill="#fafafa" d="M72 44h22l5 3v3l2 1h-4l2 4v12h-5v6h5v2l2 1v9l-4 1h-8l-4-3-3 2 3 2H66l-4-2-2-6v-9l5-5 1-9h-5l1-5 2-3h2v-3ZM55 85h7v1l-7 1Z"/><path fill="#0e0e0e" d="m92 28 2 1v14h7v6l-7-4-18-1 4-2 1-7Z"/><path d="M68 28h11l1 15-4 1h-8Z"/><path fill="#0b0b0b" d="M78 67h7v8l-3 3-5 1V68Z"/><path fill="#181818" d="m80 53 5 1v6l-8 1 1-6Z"/><path fill="#3c3c3c" d="M92 28Zm1 1h1v14h7v6l-7-4-7-1v-1h6Z"/><path fill="#777" d="m85 82 4 3 8 1v1h-9l-7-1Zm12 3Z"/></svg>