<svg xmlns="http://www.w3.org/2000/svg" display="block" viewBox="0 0 192 128"><path fill="#fdfdfd" d="M0 0h192v128H0Z"/><path fill="#131313" d="M88 86h16l3 2h-5v6l-4 6-9 4H77l-7-2-5-4-2-4 1-5 11 1 3 3 7 1 5-2v-4Z"/><path fill="#010101" d="M56 45h10l1 29 2 8h-2v4H56Z"/><path fill="#bfbfbf" d="M125 29h11v18l-7-2h-8l-2-2h6Z"/><path fill="#121212" d="M91 29h12v14l3 1H91Z"/><path fill="#171717" d="M109 29h12v9l-1 1h-11Z"/><path fill="#1f1f1f" d="M73 29h12v9l-1 1H74l-1-1Z"/><path fill="#a2a2a2" d="M135 48h2l3 4 1 6h-6Zm-1 10h1v13h-1Z"/><path fill="#080808" d="M136 72h5v5l-5 5Z"/><path fill="#7b7b7b" d="M125 81h1v5l3 1-2 1h-10v-2h5l2-4Z"/><path fill="#0b0b0b" d="m136 49 4 3 1 5h-5Z"/><path fill="#d2d2d2" d="M66 44h6v2l-6 4Z"/><path fill="#060606" d="M125 81h1v6h-4l1-4Z"/></svg>