<svg xmlns="http://www.w3.org/2000/svg" display="block" viewBox="0 0 192 128"><path fill="#fefefe" d="M0 0h192v128H0Z"/><path fill="#1b1b1b" d="M109 29h9v3l5-2v13h6l6 3 6 7 2 6v13l-5 10-6 5-9 1 2-2 5-2 4-5 3-7V62l-2-9-5-6-5-2-8-1-1-10-4 3-1 6H98v-4h11Z"/><path fill="#b2b2b2" d="M109 29h9v3l5-2v13h6l-4 2-8-1-1-10-4 3-1 6H98v-4h11Z"/><path fill="#c2c2c2" d="M84 90h9l3 1 2 3 4 1v8h-9l-5-3-4-5Z"/><path fill="#c6c6c6" d="M113 87h9v6l-4 6-4 2v2h-2Z"/><path fill="#cacaca" d="M80 66h2l1 14 4 5 4 2-3 1-6-3-5-6v-8Z"/><path fill="#121212" d="M102 87h9v5l-4 3h-5Z"/><path fill="#080808" d="M121 30h2v13h-5V32Z"/><path fill="#232323" d="M75 44h12l-6 7-3 3Z"/><path fill="#bfbfbf" d="M110 37h1v6H98v-4h12Z"/><path fill="#cbcbcb" d="M123 68h8l-1 4h-7Z"/></svg>