<svg xmlns="http://www.w3.org/2000/svg" display="block" viewBox="0 0 192 128"><path fill="#fefefe" d="M0 0h192v128H0Z"/><path fill="#c1c1c1" d="M95 28h13v15l34 1 2 5 2 2v4h-4v9l4 2 2 3v8l-3 5-2 2-1 9-4 6-4 3-4 1h-26l-7-4-2-4v-5h18l3 1 1 2 4-1 1-4-40-1-7-1v-6l8 5h9v-2l4-2v4h13l-2-3V46l1-2-26 1-6 5h-2v-5h-9v39l-5-2-4-5v-4l4-1-1-9-2-3V50l5-6 5-2h28Z"/><path fill="#0b0b0b" d="M95 28h12v15l-3 1-22 1-6 5h-2v-5h-9v39l-5-2-4-5v-4l4-1-1-9-2-3V50l5-6 5-2h28Z"/><path fill="#020202" d="M95 28h12v15l-3 1h-9l-9-1v-1h9Z"/><path fill="#1c1c1c" d="M67 42h19l9 1v1l-13 1-6 5h-2v-5h-9v39h-1l-1-38-4 3 2-4Z"/><path fill="#171717" d="M77 27h11l1 1v9H77Z"/><path fill="#fdfdfd" d="M89 87h28l5 1-1 5-4 1-1-3-21-1v-2h-6Zm5 3Z"/><path fill="#c2c2c2" d="M118 29h11v9h-11Z"/><path fill="#cacaca" d="m75 80 8 5h9v-2l4-2v4h12l7 1v1H82l-7-1Z"/><path fill="#707070" d="m64 43 10 1v1h-9v39h-1l-1-38-4 3 2-4Z"/><path fill="#f2f2f2" d="M89 87h17l-1 3H95v-2h-6Zm5 3Z"/><path fill="#e2e2e2" d="M74 80h1v6h7v1H65l-1-3 10 2Z"/><path fill="#141414" d="m75 80 7 5v1h-7Z"/></svg>