<svg xmlns="http://www.w3.org/2000/svg" display="block" viewBox="0 0 192 128"><path fill="#fefefe" d="M0 0h192v128H0Z"/><path fill="#c1c1c1" d="M96 29h37v10h-9v5h17l6 3 5 7 1 4v16l-3 6-6 6-3 1h-36l2-4 4-5v-3l-9-1-3 4h-2v-9l1-1h15l-1-11-1-7 2-5-17-1Z"/><path fill="#030303" d="M50 44h14v24h-2v10h2l1 9H52l-6-3-4-5-3-6V61l3-9 4-5Z"/><path fill="#bcbcbc" d="m75 70 2 2 2 6 5 7 6 2 7 1v14l-13 1H72l-1-8 9-2 3-5-7-1-1-1Z"/><path fill="#0d0d0d" d="M75 29h10l1 5 8-4v13l-11 2h-7l-1-1Z"/><path fill="#c3c3c3" d="M65 29h4v10h5v5h-9l2 18h-2v6h4v6h-3l-1 12h-1v-8h-2V68h2l-1-11 1-13H54v-1h11Z"/><path fill="#d3d3d3" d="M64 68h5v6h-3l-1 12h-1v-8h-2v-9Z"/><path fill="#9e9e9e" d="M54 43h10v1H54Zm10 1h1l2 18h-2v6h-1l-1-11Zm-2 24 2 1Z"/><path fill="#080808" d="m76 74 3 4 5 7v1h-8Z"/><path fill="#c5c5c5" d="M65 69h4v5l-4 1ZM100 56l2 1v5h-4l1-5Z"/></svg>