<svg xmlns="http://www.w3.org/2000/svg" display="block" viewBox="0 0 192 128"><path fill="#fefefe" d="M0 0h192v128H0Z"/><path fill="#c5c5c5" d="M124 44h9l2 1 3 8v34h-13l-1 7-4 6-6 3-4-1 6-4 3-5 1-39Z"/><path fill="#060606" d="M73 45h5v39h-2l-3-8Z"/><path fill="#c3c3c3" d="M102 29h9v15h-9Z"/><path fill="#050505" d="M97 87h17l-1 6-4 2h-9l-2-4h-2Z"/><path fill="#202020" d="M81 90h5l3 8 4 3 8 2v1H87l-2-1-3-7Z"/><path fill="#bdbdbd" d="m82 86 8 1h4l2-1h9v1h-8l-1 3-8 1-2 3v-4h-5l2-2Z"/><path fill="#2b2b2b" d="M108 87h6l-1 6-4 2h-9v-1h7Z"/></svg>