<svg xmlns="http://www.w3.org/2000/svg" display="block" viewBox="0 0 192 128"><path fill="#fefefe" d="M0 0h192v128H0Z"/><path fill="#c1c1c1" d="M77 29h40v15h17l6 3 6 8v20l-5 8-5 4h-12l-6-4-2 4h-9V46l-11-3v-5h-7v6l3 1-3 1-2-1H70l2-2h5Z"/><path fill="#0d0d0d" d="M77 29h29v16l-10-2v-5h-7v6l3 1-3 1-2-1H70l2-2h5Z"/><path fill="#fbfbfb" d="m121 53 4 2v24l-4-2-4-6V59Z"/><path fill="#c3c3c3" d="m58 76 4 5 5 4 1-3h2l3 3 5 2v1l-20-1Z"/><path fill="#ddd" d="M89 38h7v5l4 1-9 2-2-2Z"/><path fill="#8c8c8c" d="M57 57h2v17h-2l-1-11Z"/><path fill="#c2c2c2" d="M58 45h9l-5 5-4 5Z"/><path fill="#373737" d="m69 83 9 4v1h-6l-3-2Z"/></svg>