<svg xmlns="http://www.w3.org/2000/svg" display="block" viewBox="0 0 192 128"><path fill="#fefefe" d="M0 0h192v128H0Z"/><path fill="#c2c2c2" d="M69 28h3v2l-2 1-1 17-5 7-1 3v12l3 9 3 4v3h31l-2 16-1 1H63l-1-8 10-2 2-5-18-1-6-5-2-4v-6l4-6 1-1 1-9h-4l1-5 5-5 3-2h7V34Z"/><path fill="#c3c3c3" d="M69 86h31l-2 16-1 1H63l-1-8 10-2 2-5-5-1Z"/><path fill="#0c0c0c" d="m115 45 4 1 6 7 2 7v11l-3 9-8 7-3 1h-7l-1-2h10Z"/><path fill="#0e0e0e" d="M96 86h4l-2 16-1 1H76l5-5 4-5 1-5Z"/><path fill="#c7c7c7" d="M75 28h10l11 1v9l-1 1h-5l-1 5H77l-1-4 4-5v-6h-5Z"/><path fill="#c4c4c4" d="m111 55 4 2v16l-5 6h-3V66l3-8Z"/><path fill="#191919" d="M97 29h10v10h-9l-1-1Z"/><path fill="#161616" d="M78 37h9l3 2-1 5H77l-1-4Z"/><path fill="#dedede" d="M95 29h1v9h-1Zm-7 1h2v8h5v1h-6l-10-2 4-4Z"/><path fill="#bfbfbf" d="M91 29h4v9h-5v-8Z"/><path fill="#f8f8f8" d="m82 94 1 3-5 5h-2v-7Z"/><path fill="#bababa" d="M69 28h3v2l-2 1-1 5-3 2 1-5Z"/></svg>