<svg xmlns="http://www.w3.org/2000/svg" display="block" viewBox="0 0 192 128"><path fill="#fefefe" d="M0 0h192v128H0Z"/><path fill="#080808" d="M119 30h2v13l9 1 5 3 3 3 1 4 1 28 1 5h-13l-3 1h-23v-2l6-3 3-1 1 3 10 1-2-8-1-27-5-5-10-2-1-1v-5l4-1v6h2v-6l5-3Z"/><path fill="#c2c2c2" d="M78 29h11v15l-8 6-3 4-1 3v16l4 8 5 4 2 2H72l-8-5-4-5-2-4V60l3-8 7-6 1-2h5v-8l3-2Z"/><path fill="#cecece" d="M100 28h12l2 1 1 5-3 3h-2l-1 6h-2v-6l-2-1h2v-7h-7Z"/><path fill="#1c1c1c" d="M104 67h6l-1 8-4 4-2-1V68Z"/><path fill="#727272" d="M109 82h2l1 3h11v2l2 1h-23v-2l6-3Z"/><path fill="#202020" d="M103 53h6l1 5-5 3h-2Z"/><path fill="#fafafa" d="M70 57h4v7l-5 3v-8Z"/><path fill="#565656" d="m110 36 2 1Zm-6 1h3v6h2v-6h1v7h-6l-1-1v-5Z"/><path fill="#b4b4b4" d="M95 28h4v2l-3 2-1 11h-2v-9Zm-4 15 2 1Z"/><path fill="#0e0e0e" d="M109 82h2l1 5h-7v-2Z"/></svg>