<svg xmlns="http://www.w3.org/2000/svg" display="block" viewBox="0 0 192 128"><path fill="#fefefe" d="M0 0h192v128H0Z"/><path fill="#c2c2c2" d="M75 30h1l1 15-6 5-3 7v16l4 8 5 4 3 2H56l-6-5-2-4v-6l4-6 3-2v-7l-5-1 1-5 3-4h2v-3h9v-8Z"/><path fill="#0a0a0a" d="M98 55h2l1 31 6 1v6l3-6h12l-2 7-4 6-5 3-2 1h-9l-4-1-3 1H81l-8-3-5-5v-6h8l5 1 2 3 10-1 2-5-5-1v-1h7V57Z"/><path fill="#c4c4c4" d="m131 43 9 1 5 4 2 4v35h-11V54h-2l-3 14h-2V52h6l2-7h-8Z"/><path fill="#c5c5c5" d="M100 29h11v14l15 1-1 4-6-2-18-2v3l-5 3v-5h-6v-2h10Z"/><path fill="#c5c5c5" d="M82 29h11v10H83l-1-1Z"/><path fill="#c2c2c2" d="M118 29h11v9h-11Z"/><path fill="#8c8c8c" d="M99 54h2v32h-1Zm2 32h22l-1 2-12-1-2 6-2 1 1-7h-6Z"/><path fill="#050505" d="m129 52 5 1-1 6-2 9h-2Z"/><path fill="#818181" d="M90 43h10l1 4-5 3v-5h-6Z"/><path fill="#aaa" d="m112 43 14 1-1 4-6-2-6-1Z"/><path fill="#cacaca" d="M128 80h1v7h-6l2-4Z"/><path fill="#101010" d="M96 44h4l-1 4-3 2Z"/></svg>