<svg xmlns="http://www.w3.org/2000/svg" display="block" viewBox="0 0 192 128"><path fill="#fefefe" d="M0 0h192v128H0Z"/><path fill="#c1c1c1" d="M109 29h11v14h5l1-14h20v9h-9v6h17l6 3 5 6 2 6v12l-4 10-6 5-3 1h-29V74l1-2V58l-1-2V45h-13l-3-1Z"/><path fill="#c4c4c4" d="M51 44h9l2 4 6-4h10v10l-2 5h-1l-2-6h-7l-4 5-1 29H51l-1-1V45Z"/><path fill="#040404" d="M111 87h10l3 1v6l-4 6-9 4H91l1-2 6-3 2-1v4h11Z"/><path fill="#c4c4c4" d="M109 29h11v14h5v2h-13l-3-1Z"/><path fill="#c6c6c6" d="m86 82 4 2 15 3-1 5-2 2h-3v-3h-6l-3 1v2l-3 1h-7l-1 3-2-3v-5l15-2-6-2Z"/><path fill="#171717" d="M95 29h12v10H96l-1-1Z"/><path fill="#080808" d="M77 90h14l-1 4-3 1h-7l-1 3-2-3Z"/><path fill="#767676" d="m99 98 1 4h10l1 2H91l1-2 6-3Z"/><path fill="#d5d5d5" d="m75 70 2 2 1 4v11l-3-1Z"/><path fill="#4c4c4c" d="m86 82 4 2 3 1v2h-6Z"/><path fill="#171717" d="M99 98h1v5h-6Z"/></svg>