<svg xmlns="http://www.w3.org/2000/svg" display="block" viewBox="0 0 192 128"><path fill="#fefefe" d="M0 0h192v128H0Z"/><path fill="#fdfdfd" d="M68 27h11l1 1v14l9 1v2h2v-2h7l2-1h13v-3h-4V29l12-1 1-1h11l1 1 1 15 7 2 8 7 4 8v10l-3 7-6 8v2l-38 1-28-1-1-1-7-1v16H58V85l-4-2-4-6V43h18Z"/><path fill="#070707" d="M68 27h11l1 1v14l9 1v2h-7l-1 4-4 6-1 6v10l4 10 2 2v3l-11-1v16H58V85l-4-2-4-6V43h18Z"/><path fill="#c2c2c2" d="M122 27h11l1 1 1 15 7 2 8 7 4 8v10l-3 7-6 8v2l-38 1-18-1-2-2h8l1-2 7 2h17l1-4 1 4h11l-1-53-5 3h-3v-6h-2v18l-5-3H98l2-2h13v-3h-4V29l12-1Z"/><path fill="#b1b1b1" d="M121 28h12l-1 4-5 3h-3v-6h-2v18l-5-3H98l2-2h13v-3h-4V29Z"/><path fill="#cacaca" d="m95 83 8 2h13l-3 3-24-1-2-2h8Z"/><path fill="#080808" d="M122 28h11l-1 4-5 3h-3v-6Z"/><path fill="#c3c3c3" d="m121 81 1 4h11l-3 2h-15l1-2h4Z"/><path fill="#cbcbcb" d="M106 54h2l1 6-5 1 1-6Z"/><path fill="#c4c4c4" d="M104 67h4v8l-3-2Z"/></svg>