<svg xmlns="http://www.w3.org/2000/svg" display="block" viewBox="0 0 192 128"><path fill="#fefefe" d="M0 0h192v128H0Z"/><path d="M99 27h12v3h2v-2h11v15l4 1 5 5 3 5v2h-6l1 3v8h-5V45h-17V29H99Z"/><path fill="#020202" d="M67 28h12v16H67Z"/><path fill="#040404" d="M94 87h3v14H85V88Z"/><path fill="#2d2d2d" d="m126 43 6 4 4 7v2h-6l1 3v8h-5V45h-17v-1Z"/><path fill="#b2b2b2" d="M90 30h2v12h6v2h-7v-2l-7 2-5 2-12-1v-1h14v-8Z"/><path fill="#dbdbdb" d="M66 28h1l1 18v31h-2l-1-3V57Z"/><path fill="#060606" d="m127 70 9 1-1 5-4 6-4 2Z"/><path fill="#c7c7c7" d="m78 80 7 5v2h9v1h-9v13h-1V88l-10-1-1-2h5Zm7 21Z"/><path fill="#9b9b9b" d="M115 82h2l-1 5H97v-1h15l1-3Z"/><path fill="#353535" d="M99 27h12v3l2 1h-3l-1 2v-4H99Z"/></svg>