<svg xmlns="http://www.w3.org/2000/svg" display="block" viewBox="0 0 192 128"><path fill="#fefefe" d="M0 0h192v128H0Z"/><path fill="#0c0c0c" d="M106 27h11l1 1v15h18v45l-4 9-8 5h-10l5-5 1-4-10 1-2 1H98l-2-2v-5l7-2 8-1h11V45l-48-1 4-2h27V28Z"/><path fill="#212121" d="M106 27h11l1 1v15l4 1v1l-48-1 4-2h27V28Z"/><path fill="#bebebe" d="M111 85h13v5l-3 3-11 1-2 1H98l-2-2v-5l7-2Z"/><path fill="#0b0b0b" d="m74 86 12 1v3h-2l2 7 5 5-17-1Z"/><path fill="#080808" d="M99 87h11v7l-2 1H98l-2-2v-5Z"/><path fill="silver" d="M94 29h10v9H94Z"/><path fill="#151515" d="M70 47h2l-1 6-1 3h5l1 1v7l-4 1-4-5V50Z"/><path fill="#c6c6c6" d="M85 86h13l1 2h-3v4l-2 1h-8v-3l9 1v-4h-8l-1 2Z"/><path fill="#e8e8e8" d="m69 80 4 2 2 4-1 15h-1l-1-16Zm5 21h12v1H74Z"/><path fill="#f5f5f5" d="M87 87h8v4l-9-1Zm-3 3h2l-1 5h-1Z"/><path fill="#c7c7c7" d="m101 100 8 1 1 2H93v-1Z"/><path fill="#c1c1c1" d="M73 65h1v7l-5 1 1-5Z"/><path fill="#242424" d="M70 47h2l-1 6-3-1Z"/></svg>