<svg xmlns="http://www.w3.org/2000/svg" display="block" viewBox="0 0 192 128"><path fill="#fefefe" d="M0 0h192v128H0Z"/><path fill="#c2c2c2" d="M51 29h33v15l3 1-6 3-1-4H69v-5l-3-1v6h2l7 16 1 14 5 8 3 3 10 1 2 2H85l-10-1v16H65l-1-1V88h-9l-7-3-6-7-2-5V60l3-9 5-5 3-1Zm51 0h9v3l7-3h12v15l5 1 7 6 3 7v15l-4 8-5 6-5 1h-15v14l-1 1h-11V87l14-1 6-3 4-5 2-7V59l-2-7-5-5-4-2-14-1v-5h-3v5H87v-8l4-1v3h11Z"/><path fill="#0e0e0e" d="M118 29h12v15l5 1 7 6 3 7v15l-4 8-5 6-5 1h-15v14l-1 1h-11V87l14-1 6-3 4-5 2-7V59l-2-7-5-5-4-2-14-1v-5h6v-6l4-3Z"/><path fill="#020202" d="M104 87h8l3 1v14h-11Z"/><path fill="#d1d1d1" d="M102 29h9l1 4-1 6h-9v5H90v-1h11v-4H91v-1h11Z"/><path fill="silver" d="M89 35h2v4h10v4l-13 1v-8Z"/><path fill="#c1c1c1" d="M103 29h8l1 4-5 3h-2v2h-2Z"/><path fill="#e7e7e7" d="m66 38 4 1v4l10 1v1l-12 1v-2h-2Z"/><path fill="#f6f6f6" d="M109 33h2v5h-6v-2Z"/></svg>