<svg xmlns="http://www.w3.org/2000/svg" display="block" viewBox="0 0 192 128"><path fill="#fefefe" d="M0 0h192v128H0Z"/><path fill="#c1c1c1" d="M134 44h9l6 3 5 6 1 4v16l-3 7-5 5-4 2h-9l1-4 3-5V66h-2l-1 2-2-5v-7l5-1-4-7Z"/><path fill="#0d0d0d" d="M77 29h21v15l-4 1h-7l-1-1v-5h-8l-1-1Z"/><path fill="#c1c1c1" d="M115 29h20v9h-9v6h-5V30l-4 3-1 11-6-1v-7l4-3Z"/><path fill="#101010" d="M68 90h12l3 4 6 1v7h6l-2 2H81l-8-3-4-4Z"/><path fill="#353535" d="M60 44h10l-3 3-4 4-2 5 4 1v8l-3 3-1 3h-2V45Z"/><path fill="#e0e0e0" d="m71 81 7 4 18 1v5l-4 4h-2v6h-1v-6h-6v-1h5l-1-6-16-1Z"/><path fill="#f0f0f0" d="m68 86 19 1 1 1v6h-6l-2-3-12-1 2-2Zm-1 4Z"/><path fill="#040404" d="M112 34h3v10l-5-1v-7Z"/><path fill="#b3b3b3" d="M107 29h2l1 14 4 1h-7Z"/><path fill="silver" d="M89 87h6v5l-2 2h-4Z"/><path fill="#060606" d="M60 45h8l-6 8h-2Z"/><path fill="#494949" d="M59 79h2l3 5 3 3h-7l-1-1Z"/><path fill="#a8a8a8" d="M115 29h7l-5 4-1 11h-1l-1-11Z"/><path fill="#535353" d="m105 86 5 1-3 1-1 7h-2v-8Z"/><path fill="#c4c4c4" d="m71 81 7 5v1h-7Z"/><path fill="#cacaca" d="M70 44h7l-5 5-2 1-1-5Z"/></svg>