<svg xmlns="http://www.w3.org/2000/svg" display="block" viewBox="0 0 192 128"><path fill="#fefefe" d="M0 0h192v128H0Z"/><path fill="#c3c3c3" d="M100 29h18v15l7 1 5 5 1 2v35h-13l1-4 4-5v-9l-5-5v-7h3l-1-7-2-2v-3h-6l-2-1-18-1v-5h8Z"/><path fill="#c2c2c2" d="M100 29h18l1 16h-7l-2-1-18-1v-5h8Z"/><path fill="#c1c1c1" d="M81 38h8l1 5-1 1-11 2-4 2-1 2h-4l-3 4-1 4v17l6 9v2h-9V45l2-1 16-1Z"/><path fill="#3a3a3a" d="m72 71 2 2 4 8 2 2v3h6l2 2h-9l-7-2Z"/><path fill="silver" d="M62 60h1l2 15 6 9v2h-9Z"/><path fill="#555" d="M81 38h8l1 5-1 1-11 2-6 3v-4l8-2Z"/><path fill="#c5c5c5" d="M80 29h9v3l-7 4-2 3Z"/><path d="M81 39h8v4l-8 1Z"/></svg>