<svg xmlns="http://www.w3.org/2000/svg" display="block" viewBox="0 0 192 128"><path fill="#fefefe" d="M0 0h192v128H0Z"/><path fill="#050505" d="M100 28h9l7 1 1 14 7 3 6 5 3 6 1 5v7l-3 9-4 5-5 2-2-6-1-30-4-2-1-3V30l-10 6 1 1v7l-7 1-2 3-1-15-1 1-1 9-5 2h-3V29h13Z"/><path fill="#bababa" d="M100 28h9l7 1 1 15-2 3-1-3V30l-10 6 1 1v7l-7 1-2 3-1-15-1 1-1 9-5 2h-3V29h13Zm16 19Zm1 1Z"/><path fill="#c1c1c1" d="M84 29h1l1 17v39l1 2h-3l-7-9-2-4V57l5-8 3-3Z"/><path fill="#090909" d="M85 29h10l-1 5-1 9-5 2h-3Z"/><path fill="#d0d0d0" d="m96 82 7 3v2l-3 1H89l-1-2h8Z"/><path fill="#c1c1c1" d="M113 29h3l1 15-2 3-1-3Zm3 18Zm1 1Z"/></svg>