<svg xmlns="http://www.w3.org/2000/svg" display="block" viewBox="0 0 192 128"><path fill="#fefefe" d="M0 0h192v128H0Z"/><path fill="#c1c1c1" d="M56 29h20v15h-8l1 5-4 5-2 5v11l3 9 7 6 11 2 1 2-2 6-3 5-6 3H57l-7-3-4-5v-5h9l4 2 1 2h10l3-3 1-4H56l-8-7-3-6V56l4-7 5-4h2Z"/><path fill="#0b0b0b" d="M119 44h11l-4 16-7 21-2 6h-10V48l4 4v4h-3l3 10 3-7 4-14Z"/><path fill="#c2c2c2" d="m74 86 10 1 1 2-2 6-3 5-6 3H57l-7-3-4-5v-5h9l4 2 1 2h10l3-3ZM96 28h11l3 1-1 8h-2v10l-3-2-10-2-1-12-3 2-2 11h-6V29Z"/><path fill="#101010" d="M82 29h11l-3 4-2 11h-6Z"/><path fill="#222" d="m107 48 4 4v4h-3l1 7-1 22h-1Z"/><path fill="#0b0b0b" d="m107 48 4 4v3h-4Z"/></svg>