<svg xmlns="http://www.w3.org/2000/svg" display="block" viewBox="0 0 192 128"><path fill="#fefefe" d="M0 0h192v128H0Z"/><path fill="#c1c1c1" d="M111 29h20v9h-9v5l17 1 7 4 4 6 1 5v14l-4 8-5 5-3 1h-25l-1-4 4-5 2-6-7-1V58l6-1-3-7-5-4-2-2h3Z"/><path fill="#c2c2c2" d="m82 86 15 1-2 1v6h2l1-7h11l-1 7-3 5-4 3-4 1H80l-7-4-2-3v-6h9l3 1 1-3h-2Z"/><path fill="#101010" d="M72 43h7l-3 2-6 3-3 4-1 4h4l-1 10h-2l-2 5v8l2 5 6 2 2 2-9-1-7-9-2-6-1-12-5-13v-3h11l1 3Z"/><path fill="#1e1e1e" d="M73 29h12v9l-1 1H74l-1-1Z"/><path fill="#151515" d="M87 29h7v15h-7Z"/><path fill="silver" d="M98 29h6v14h-5Z"/><path fill="#d5d5d5" d="m82 86 10 1v1h-7v6l-2-1 1-5h-2Z"/></svg>