<svg xmlns="http://www.w3.org/2000/svg" display="block" viewBox="0 0 192 128"><path fill="#fefefe" d="M0 0h192v128H0Z"/><path fill="#c2c2c2" d="M42 29h11v14h13l2 2h-8l6 15 1 13 4 8 5 4v2H42l-2-6-4-7V57l5-8ZM117 44h11l2 1 2 7 4 8v11l-4 8-8 8-2-1 1-4 5-10-7-1V58l5-1-1-5-4-5Z"/><path fill="#bdbdbd" d="M82 28h5v4l-3 2-1 4h10v-9h5v6l8-5h2v13l-1 1-9 1-2-1H79v-8Z"/><path fill="#151515" d="M106 30h2v13l-1 1h-9v-9Z"/><path fill="#c6c6c6" d="M56 29h11v9l-1 1H56Z"/><path fill="#e6e6e6" d="M82 28h5v4l-3 2-1 4h10v-9h1v10H82l-1-10Z"/><path fill="#c2c2c2" d="M80 54h2v8h-4l1-7Z"/><path fill="#151515" d="M82 29h5l-1 4-4 1Z"/><path fill="#d8d8d8" d="M107 53h2l1 6-3 1Z"/></svg>