<svg xmlns="http://www.w3.org/2000/svg" display="block" viewBox="0 0 192 128"><path fill="#fefefe" d="M0 0h192v128H0Z"/><path fill="#c2c2c2" d="M83 29h14v15h4l-1 4h-2l-1 2-1-3h-2l-1-2-11-1ZM57 44h25v43h11l1 5 2-4 1-6 4 4 7 1-1 7-4 6-5 3H82l-1-1V87H57l-6-4-4-5-2-5V58l3-7 7-6Z"/><path fill="#030303" d="m97 82 4 4 7 1-1 7-4 6-5 3H85l-3-1V88l2-1h9l1 5 2-4Z"/><path fill="#bebebe" d="M83 29h14v15h4l-1 4h-2l-1 2-1-3h-2l-1-2-11-1Zm-2 15h1v43l2 1h-2v14h-1Zm1 58 3 1Z"/><path fill="#bbb" d="m125 55 5 1 1 2v17h-5l-1-2 2-5h2l-4-4Z"/><path fill="silver" d="M65 29h10v9H65Z"/><path fill="#a5a5a5" d="M100 29h11l1 1v13h-1V31l-11 6Z"/><path fill="#212121" d="m111 68 5 1-2 7-3 1Z"/><path fill="#656565" d="M129 76h2l-2 5-2 6h-7l1-2h3l2-4Z"/><path fill="#bfbfbf" d="m96 81 2 1-2 9-3 2v-6h-6v-1l7-1 1 1Zm-2 6Z"/><path fill="#1d1d1d" d="m111 54 3 1 2 7h-5Z"/><path fill="#7e7e7e" d="M95 44h6l-1 4h-2l-1 2-2-3Z"/><path fill="#656565" d="M117 44h7l4 6-1 2-7-6Z"/><path fill="#121212" d="M127 69h3v6l-5-1Z"/></svg>