<svg xmlns="http://www.w3.org/2000/svg" display="block" viewBox="0 0 192 128"><path fill="#fefefe" d="M0 0h192v128H0Z"/><path fill="#fefefe" d="M106 27h12v2h-11v10h11v4l4 1h13l5 9v2h-2v2h-3l2 7 4 4v10l-5 6-1 3-17 1-3 10-6 4-3 1H88l-2-2h4V91H80l2 7 2 3h-6l-1-15-3-3-1 19H62V44h15l5-2h11V28h11l1 2Z"/><path fill="#c2c2c2" d="M62 44h15l-2 4-2 3-1 25 8 10 11 1 1 7h10l3-1 2-5-5-1v-1l18-2 6-5 2-5v-3l-9-1v-3h5l-1-11h6l-4-8-3-4h13l5 9v2h-2v2h-3l2 7 4 4v10l-5 6-1 3-17 1-3 10-6 4-3 1H88l-2-2h4V91H80l2 7 2 3h-6l-1-15-3-3-1 19H62Z"/><path fill="#c2c2c2" d="M62 44h15l-2 4-2 3-1 25 8 10 10 1v4H80l2 7 2 3h-6l-1-15-3-3-1 19H62Z"/><path fill="#0c0c0c" d="M106 27h12v2h-11v10h11v4l-12 1-28 1v-2l4-1h11V28h11l1 2Z"/><path fill="#fafafa" d="M88 86h14l5 2-1 5-4 2h-7l-3-1-1-7Z"/><path fill="#f9f9f9" d="M80 91h10v10l-4 1h-7l4-2-3-4Z"/><path fill="#999" d="m79 86 11 1v4H80l2 7 2 3h-6V87Z"/><path fill="#191919" d="M79 87h11l-1 4-10-1Z"/><path fill="#0d0d0d" d="m79 94 4 5 1 2h-5Z"/></svg>