<svg xmlns="http://www.w3.org/2000/svg" display="block" viewBox="0 0 192 128"><path fill="#fefefe" d="M0 0h192v128H0Z"/><path fill="#bcbcbc" d="M88 29h4v9h8v-9h7v15l-6 1-12-1-1-1Z"/><path fill="#c7c7c7" d="m123 43 2 1Zm2 1 7 1 5 4 1 2 1 31 1 5h-12l5-5 3-5v-9l-3-3-1-10h4l-4-6-4-3Z"/><path fill="#c5c5c5" d="M118 28h9l5 1-1 8-9 1-1 6h-3Z"/><path fill="#cacaca" d="m75 50 1 2-2 4h4v9l-4 5-2 4-1-1V58Z"/><path fill="#181818" d="M88 29h3l1 9 8 1v5H89l-1-1Z"/><path fill="#232323" d="m84 55 3 1v12l-3 5-2-2V59Z"/><path fill="#d0d0d0" d="m123 43 2 1Zm2 1 7 1 5 4v2l-4-1-5-4Z"/></svg>