<svg xmlns="http://www.w3.org/2000/svg" display="block" viewBox="0 0 192 128"><path fill="#fefefe" d="M0 0h192v128H0Z"/><path fill="#bfbfbf" d="M126 73h1v18l-4 8-7 4H86V88l-3-1 4-1 11 1v4h3v3h11l3-3 1-5 7-6Z"/><path fill="#0e0e0e" d="M64 44h11l1 4 4-2-1 4-3 4-1 4v15l4 8 1 4-3-2-2 4H64Z"/><path fill="#ebebeb" d="M96 86h19l1 5-4 4h-9l-2-1v-3h-3v-4Z"/><path fill="#c5c5c5" d="m91 28 3 1v9l-3 1v4l-10 2-1 2-1-2 1-16h3v9h7v-9Z"/><path fill="#080808" d="m83 86 14 1v3h-9l3 8 4 4h-9V88l-3-1Z"/><path fill="#030303" d="M95 29h3v10h9v4l-11 1-1-1Z"/><path fill="#f6f6f6" d="M88 90Zm1 1h8l1 1v10l-6-2-3-4Z"/><path fill="#c9c9c9" d="m113 43 14 1v14l-2-3-4-6-3-3-5-2Z"/><path fill="#8e8e8e" d="m91 28 3 1v9l-1 1H82V29h1v9h7v-9Z"/><path fill="#c3c3c3" d="m77 56 5 1v7l-6 4V57Z"/><path fill="silver" d="m112 55 2 1 1 3v14l-3 3Z"/><path fill="#b4b4b4" d="M107 29h2v10l-1 4h3v2l-10-1v-1h6v-4h-9v-1h9Z"/><path fill="#2e2e2e" d="m83 86 14 1v3H87v-2l-4-1Z"/><path fill="#393939" d="M95 29h3v10h-2l-1 4Z"/></svg>