<svg xmlns="http://www.w3.org/2000/svg" display="block" viewBox="0 0 192 128"><path fill="#fefefe" d="M0 0h192v128H0Z"/><path fill="#c3c3c3" d="M119 45h10v47l-3 6-3 3-6 2h-16l-3-1-1-10-6-2 2 7 3 4H86V87l20-2h13Z"/><path fill="#060606" d="M70 42h4v2l-9 4-5 6-2 5v13l4 8v5H50V43h11l1 3 4-3Z"/><path fill="#b5b5b5" d="M68 27h11l2 5 4-1 1-4h11v2h-5v3l-5 3-1 8-12-1v-5h-6Z"/><path fill="#fdfdfd" d="m111 86 7 1v5l-5 3h-8l-2-4-5-1v-3Z"/><path fill="#0a0a0a" d="M86 87h12v3h-7l2 7 3 4H86Z"/><path fill="#030303" d="M68 28h11v6l-5 3h-6Z"/><path fill="#c2c2c2" d="m101 28 10 1v9h-9Z"/><path fill="#f5f5f5" d="m91 90 6 1 1 1v10l-5-3-2-3Z"/><path fill="#080808" d="M86 28h11v1h-5v3l-3 2h-3Z"/><path fill="#464646" d="M92 87h6v3h-7l-1 4v-5Z"/><path fill="#272727" d="M70 42h4v2l-8 2v-3Z"/></svg>