<svg xmlns="http://www.w3.org/2000/svg" display="block" viewBox="0 0 192 128"><path fill="#fefefe" d="M0 0h192v128H0Z"/><path fill="#c2c2c2" d="M111 29h6l1 5 5-3h2v13h7l6 4 4 5 2 4v11h-6v7h5l-1 5-3 3-1 3-6 1h-16l1-5 3-4 1-3h-4v-7h5l-2-13-4-6V37h-2v7h-8v-5l5-1Z"/><path fill="#070707" d="M81 44h6l-2 6-4 8v12l3 9 2 3v5h-9l-5-5-2-5V59l3-9 5-5Z"/><path fill="#bfbfbf" d="M85 81Zm1 1h1v5h10l1 1v13l-1 1H87l-1-13-6-1v-1h6Z"/><path fill="#070707" d="M91 29h5v15h-9v-8l3-2Z"/><path fill="#262626" d="M111 29h5v7h-2v8h-8v-5l5-1Z"/><path fill="#ccc" d="M102 29h3v15h-3Z"/><path fill="#080808" d="M111 29h5v7h-2v6l-2-4Z"/><path fill="#c2c2c2" d="M85 81Zm1 1h1v5h10v1l-11 1-6-1v-1h6Zm11 6h1v13h-1Z"/></svg>