<svg xmlns="http://www.w3.org/2000/svg" display="block" viewBox="0 0 192 128"><path fill="#fefefe" d="M0 0h192v128H0Z"/><path fill="#c2c2c2" d="M57 44h16l-1 5-3 4-2 6v11l4 10 2 2v5H57v-3l-4-2-3-4v-3l7-1v-8l-4-2-2-3v-9Z"/><path fill="silver" d="M130 29h10v57h-6l-1-32-3-6-2-3h2Z"/><path fill="#0a0a0a" d="m68 90 13 1 2 3 8 1 1 9H81l-8-3-4-4Z"/><path fill="#c3c3c3" d="M121 81h1v6h-7l-3 10-5 5-3 1h-7l5-4 4-8 1-4 10-3Z"/><path fill="#212121" d="M82 29h3v14h2v-7h2v10l-16-2v-5h9Z"/><path fill="#c1c1c1" d="M89 29h11l1 15-3-1V31l-7 4-1 9h-1l-1-9Z"/><path fill="#232323" d="m90 86 14 1-3 7-9 1 3-7-5-1Z"/><path fill="#040404" d="M123 69h6l-1 5h-5Z"/><path fill="#444" d="M129 81h2v5l-1 1h-6v-2Z"/></svg>